<mxfile host="app.diagrams.net" agent="Mozilla/5.0 (Windows NT 10.0; Win64; x64) AppleWebKit/537.36 (KHTML, like Gecko) Chrome/131.0.0.0 Safari/537.36 Edg/131.0.0.0" version="25.0.3">
  <diagram name="Page-1" id="_FT-25Z0K2KE5rLXkAeb">
    <mxGraphModel dx="3360" dy="2115" grid="1" gridSize="10" guides="1" tooltips="1" connect="1" arrows="1" fold="1" page="1" pageScale="1" pageWidth="1000" pageHeight="700" math="0" shadow="0">
      <root>
        <mxCell id="0" />
        <mxCell id="1" parent="0" />
        <mxCell id="0udTxkL1ZwxzqSRE1IcV-15" value="Produk" style="rounded=0;whiteSpace=wrap;html=1;" parent="1" vertex="1">
          <mxGeometry x="540" y="160" width="120" height="60" as="geometry" />
        </mxCell>
        <mxCell id="0udTxkL1ZwxzqSRE1IcV-16" value="Kategori Produk" style="rounded=0;whiteSpace=wrap;html=1;" parent="1" vertex="1">
          <mxGeometry x="540" y="-220" width="120" height="60" as="geometry" />
        </mxCell>
        <mxCell id="0udTxkL1ZwxzqSRE1IcV-17" value="Mengelompokkan" style="rhombus;whiteSpace=wrap;html=1;" parent="1" vertex="1">
          <mxGeometry x="540" y="-120" width="120" height="80" as="geometry" />
        </mxCell>
        <mxCell id="0udTxkL1ZwxzqSRE1IcV-18" value="Pesanan" style="rounded=0;whiteSpace=wrap;html=1;" parent="1" vertex="1">
          <mxGeometry x="1020" y="160" width="120" height="60" as="geometry" />
        </mxCell>
        <mxCell id="0udTxkL1ZwxzqSRE1IcV-19" value="Pesanan Produk" style="rhombus;whiteSpace=wrap;html=1;" parent="1" vertex="1">
          <mxGeometry x="840" y="150" width="80" height="80" as="geometry" />
        </mxCell>
        <mxCell id="0udTxkL1ZwxzqSRE1IcV-20" value="Pelanggan" style="rounded=0;whiteSpace=wrap;html=1;" parent="1" vertex="1">
          <mxGeometry x="1020" y="440" width="120" height="60" as="geometry" />
        </mxCell>
        <mxCell id="0udTxkL1ZwxzqSRE1IcV-21" value="Memesan" style="rhombus;whiteSpace=wrap;html=1;" parent="1" vertex="1">
          <mxGeometry x="1040" y="250" width="80" height="80" as="geometry" />
        </mxCell>
        <mxCell id="0udTxkL1ZwxzqSRE1IcV-22" value="Showroom" style="rounded=0;whiteSpace=wrap;html=1;" parent="1" vertex="1">
          <mxGeometry x="1280" y="315" width="120" height="60" as="geometry" />
        </mxCell>
        <mxCell id="0udTxkL1ZwxzqSRE1IcV-24" value="Wilayah Penjualan" style="rounded=0;whiteSpace=wrap;html=1;" parent="1" vertex="1">
          <mxGeometry x="1280" y="40" width="120" height="60" as="geometry" />
        </mxCell>
        <mxCell id="0udTxkL1ZwxzqSRE1IcV-25" value="mengelola" style="rhombus;whiteSpace=wrap;html=1;" parent="1" vertex="1">
          <mxGeometry x="1300" y="150" width="80" height="80" as="geometry" />
        </mxCell>
        <mxCell id="0udTxkL1ZwxzqSRE1IcV-26" value="Bahan Baku" style="rounded=0;whiteSpace=wrap;html=1;" parent="1" vertex="1">
          <mxGeometry x="540" y="455" width="120" height="60" as="geometry" />
        </mxCell>
        <mxCell id="0udTxkL1ZwxzqSRE1IcV-27" value="Bahan Produk" style="rhombus;whiteSpace=wrap;html=1;" parent="1" vertex="1">
          <mxGeometry x="560" y="260" width="80" height="80" as="geometry" />
        </mxCell>
        <mxCell id="0udTxkL1ZwxzqSRE1IcV-28" value="Vendor" style="rounded=0;whiteSpace=wrap;html=1;" parent="1" vertex="1">
          <mxGeometry x="260" y="300" width="120" height="60" as="geometry" />
        </mxCell>
        <mxCell id="0udTxkL1ZwxzqSRE1IcV-29" value="Pemasok" style="rhombus;whiteSpace=wrap;html=1;" parent="1" vertex="1">
          <mxGeometry x="280" y="445" width="80" height="85" as="geometry" />
        </mxCell>
        <mxCell id="0udTxkL1ZwxzqSRE1IcV-30" value="Workshop" style="rounded=0;whiteSpace=wrap;html=1;" parent="1" vertex="1">
          <mxGeometry x="810" y="-160" width="120" height="60" as="geometry" />
        </mxCell>
        <mxCell id="0udTxkL1ZwxzqSRE1IcV-31" value="Produk Workshop" style="rhombus;whiteSpace=wrap;html=1;" parent="1" vertex="1">
          <mxGeometry x="830" y="-70" width="80" height="80" as="geometry" />
        </mxCell>
        <mxCell id="0udTxkL1ZwxzqSRE1IcV-34" value="Sales" style="rounded=0;whiteSpace=wrap;html=1;" parent="1" vertex="1">
          <mxGeometry x="1665" y="40" width="120" height="60" as="geometry" />
        </mxCell>
        <mxCell id="0udTxkL1ZwxzqSRE1IcV-35" value="Karyawan" style="rounded=0;whiteSpace=wrap;html=1;" parent="1" vertex="1">
          <mxGeometry x="1170" y="-160" width="120" height="60" as="geometry" />
        </mxCell>
        <mxCell id="0udTxkL1ZwxzqSRE1IcV-37" value="Jabatan" style="rounded=0;whiteSpace=wrap;html=1;" parent="1" vertex="1">
          <mxGeometry x="1430" y="-325" width="120" height="60" as="geometry" />
        </mxCell>
        <mxCell id="0udTxkL1ZwxzqSRE1IcV-38" value="Memiliki" style="rhombus;whiteSpace=wrap;html=1;" parent="1" vertex="1">
          <mxGeometry x="1450" y="-170" width="80" height="80" as="geometry" />
        </mxCell>
        <mxCell id="0udTxkL1ZwxzqSRE1IcV-39" value="Keahlian Karyawan" style="rhombus;whiteSpace=wrap;html=1;" parent="1" vertex="1">
          <mxGeometry x="1190" y="-390" width="80" height="80" as="geometry" />
        </mxCell>
        <mxCell id="0udTxkL1ZwxzqSRE1IcV-41" value="" style="endArrow=none;html=1;rounded=0;entryX=0.5;entryY=1;entryDx=0;entryDy=0;exitX=0.5;exitY=0;exitDx=0;exitDy=0;" parent="1" source="0udTxkL1ZwxzqSRE1IcV-17" target="0udTxkL1ZwxzqSRE1IcV-16" edge="1">
          <mxGeometry width="50" height="50" relative="1" as="geometry">
            <mxPoint x="730" y="-30" as="sourcePoint" />
            <mxPoint x="780" y="-80" as="targetPoint" />
          </mxGeometry>
        </mxCell>
        <mxCell id="0udTxkL1ZwxzqSRE1IcV-42" value="" style="endArrow=none;html=1;rounded=0;exitX=0.5;exitY=0;exitDx=0;exitDy=0;" parent="1" source="0udTxkL1ZwxzqSRE1IcV-15" target="0udTxkL1ZwxzqSRE1IcV-17" edge="1">
          <mxGeometry width="50" height="50" relative="1" as="geometry">
            <mxPoint x="730" y="-30" as="sourcePoint" />
            <mxPoint x="780" y="-80" as="targetPoint" />
          </mxGeometry>
        </mxCell>
        <mxCell id="0udTxkL1ZwxzqSRE1IcV-43" value="" style="endArrow=none;html=1;rounded=0;entryX=0.5;entryY=1;entryDx=0;entryDy=0;exitX=0.5;exitY=0;exitDx=0;exitDy=0;" parent="1" source="0udTxkL1ZwxzqSRE1IcV-27" target="0udTxkL1ZwxzqSRE1IcV-15" edge="1">
          <mxGeometry width="50" height="50" relative="1" as="geometry">
            <mxPoint x="730" y="410" as="sourcePoint" />
            <mxPoint x="780" y="360" as="targetPoint" />
          </mxGeometry>
        </mxCell>
        <mxCell id="0udTxkL1ZwxzqSRE1IcV-44" value="" style="endArrow=none;html=1;rounded=0;" parent="1" source="0udTxkL1ZwxzqSRE1IcV-26" target="0udTxkL1ZwxzqSRE1IcV-27" edge="1">
          <mxGeometry width="50" height="50" relative="1" as="geometry">
            <mxPoint x="730" y="410" as="sourcePoint" />
            <mxPoint x="780" y="360" as="targetPoint" />
          </mxGeometry>
        </mxCell>
        <mxCell id="0udTxkL1ZwxzqSRE1IcV-47" value="" style="endArrow=none;html=1;rounded=0;entryX=0.5;entryY=1;entryDx=0;entryDy=0;" parent="1" source="0udTxkL1ZwxzqSRE1IcV-22" target="0udTxkL1ZwxzqSRE1IcV-25" edge="1">
          <mxGeometry width="50" height="50" relative="1" as="geometry">
            <mxPoint x="1485" y="330" as="sourcePoint" />
            <mxPoint x="1535" y="280" as="targetPoint" />
          </mxGeometry>
        </mxCell>
        <mxCell id="0udTxkL1ZwxzqSRE1IcV-48" value="" style="endArrow=none;html=1;rounded=0;entryX=0.5;entryY=1;entryDx=0;entryDy=0;exitX=0.5;exitY=0;exitDx=0;exitDy=0;" parent="1" source="0udTxkL1ZwxzqSRE1IcV-25" target="0udTxkL1ZwxzqSRE1IcV-24" edge="1">
          <mxGeometry width="50" height="50" relative="1" as="geometry">
            <mxPoint x="1485" y="330" as="sourcePoint" />
            <mxPoint x="1535" y="280" as="targetPoint" />
          </mxGeometry>
        </mxCell>
        <mxCell id="0udTxkL1ZwxzqSRE1IcV-51" value="" style="endArrow=none;html=1;rounded=0;exitX=1;exitY=0.5;exitDx=0;exitDy=0;entryX=0;entryY=0.5;entryDx=0;entryDy=0;" parent="1" source="0udTxkL1ZwxzqSRE1IcV-29" target="0udTxkL1ZwxzqSRE1IcV-26" edge="1">
          <mxGeometry width="50" height="50" relative="1" as="geometry">
            <mxPoint x="510" y="385" as="sourcePoint" />
            <mxPoint x="560" y="335" as="targetPoint" />
          </mxGeometry>
        </mxCell>
        <mxCell id="0udTxkL1ZwxzqSRE1IcV-53" value="" style="endArrow=none;html=1;rounded=0;exitX=1;exitY=0.5;exitDx=0;exitDy=0;entryX=0;entryY=0.5;entryDx=0;entryDy=0;" parent="1" source="0udTxkL1ZwxzqSRE1IcV-15" target="0udTxkL1ZwxzqSRE1IcV-19" edge="1">
          <mxGeometry width="50" height="50" relative="1" as="geometry">
            <mxPoint x="850" y="200" as="sourcePoint" />
            <mxPoint x="900" y="150" as="targetPoint" />
          </mxGeometry>
        </mxCell>
        <mxCell id="0udTxkL1ZwxzqSRE1IcV-54" value="" style="endArrow=none;html=1;rounded=0;entryX=0;entryY=0.5;entryDx=0;entryDy=0;exitX=1;exitY=0.5;exitDx=0;exitDy=0;" parent="1" source="0udTxkL1ZwxzqSRE1IcV-19" target="0udTxkL1ZwxzqSRE1IcV-18" edge="1">
          <mxGeometry width="50" height="50" relative="1" as="geometry">
            <mxPoint x="850" y="200" as="sourcePoint" />
            <mxPoint x="900" y="150" as="targetPoint" />
          </mxGeometry>
        </mxCell>
        <mxCell id="0udTxkL1ZwxzqSRE1IcV-56" value="" style="endArrow=none;html=1;rounded=0;entryX=0.5;entryY=1;entryDx=0;entryDy=0;" parent="1" target="0udTxkL1ZwxzqSRE1IcV-30" edge="1">
          <mxGeometry width="50" height="50" relative="1" as="geometry">
            <mxPoint x="870" y="-70" as="sourcePoint" />
            <mxPoint x="880" y="80" as="targetPoint" />
          </mxGeometry>
        </mxCell>
        <mxCell id="0udTxkL1ZwxzqSRE1IcV-57" value="" style="endArrow=none;html=1;rounded=0;entryX=0.5;entryY=1;entryDx=0;entryDy=0;exitX=0.584;exitY=-0.006;exitDx=0;exitDy=0;exitPerimeter=0;" parent="1" source="0udTxkL1ZwxzqSRE1IcV-15" target="0udTxkL1ZwxzqSRE1IcV-31" edge="1">
          <mxGeometry width="50" height="50" relative="1" as="geometry">
            <mxPoint x="970" y="70" as="sourcePoint" />
            <mxPoint x="1020" y="20" as="targetPoint" />
            <Array as="points">
              <mxPoint x="610" y="40" />
              <mxPoint x="870" y="40" />
            </Array>
          </mxGeometry>
        </mxCell>
        <mxCell id="0udTxkL1ZwxzqSRE1IcV-58" value="" style="endArrow=none;html=1;rounded=0;entryX=0.5;entryY=1;entryDx=0;entryDy=0;exitX=0.5;exitY=0;exitDx=0;exitDy=0;" parent="1" source="0udTxkL1ZwxzqSRE1IcV-21" target="0udTxkL1ZwxzqSRE1IcV-18" edge="1">
          <mxGeometry width="50" height="50" relative="1" as="geometry">
            <mxPoint x="980" y="350" as="sourcePoint" />
            <mxPoint x="1030" y="300" as="targetPoint" />
          </mxGeometry>
        </mxCell>
        <mxCell id="0udTxkL1ZwxzqSRE1IcV-59" value="" style="endArrow=none;html=1;rounded=0;entryX=0.5;entryY=1;entryDx=0;entryDy=0;exitX=0.5;exitY=0;exitDx=0;exitDy=0;" parent="1" source="0udTxkL1ZwxzqSRE1IcV-20" target="0udTxkL1ZwxzqSRE1IcV-21" edge="1">
          <mxGeometry width="50" height="50" relative="1" as="geometry">
            <mxPoint x="980" y="350" as="sourcePoint" />
            <mxPoint x="1030" y="300" as="targetPoint" />
          </mxGeometry>
        </mxCell>
        <mxCell id="0udTxkL1ZwxzqSRE1IcV-60" value="&lt;u&gt;id_produk&lt;/u&gt;" style="ellipse;whiteSpace=wrap;html=1;" parent="1" vertex="1">
          <mxGeometry x="430" y="110" width="110" height="40" as="geometry" />
        </mxCell>
        <mxCell id="0udTxkL1ZwxzqSRE1IcV-61" value="deskripsi_produk" style="ellipse;whiteSpace=wrap;html=1;" parent="1" vertex="1">
          <mxGeometry x="480" y="70" width="110" height="40" as="geometry" />
        </mxCell>
        <mxCell id="0udTxkL1ZwxzqSRE1IcV-62" value="tanggal_produk" style="ellipse;whiteSpace=wrap;html=1;" parent="1" vertex="1">
          <mxGeometry x="620" y="70" width="110" height="40" as="geometry" />
        </mxCell>
        <mxCell id="0udTxkL1ZwxzqSRE1IcV-63" value="harga" style="ellipse;whiteSpace=wrap;html=1;" parent="1" vertex="1">
          <mxGeometry x="680" y="110" width="110" height="40" as="geometry" />
        </mxCell>
        <mxCell id="0udTxkL1ZwxzqSRE1IcV-64" value="" style="endArrow=none;html=1;rounded=0;entryX=0.291;entryY=0.971;entryDx=0;entryDy=0;entryPerimeter=0;exitX=0.687;exitY=0.006;exitDx=0;exitDy=0;exitPerimeter=0;" parent="1" source="0udTxkL1ZwxzqSRE1IcV-15" target="0udTxkL1ZwxzqSRE1IcV-62" edge="1">
          <mxGeometry width="50" height="50" relative="1" as="geometry">
            <mxPoint x="550" y="90" as="sourcePoint" />
            <mxPoint x="600" y="40" as="targetPoint" />
          </mxGeometry>
        </mxCell>
        <mxCell id="0udTxkL1ZwxzqSRE1IcV-65" value="" style="endArrow=none;html=1;rounded=0;exitX=0.691;exitY=0.008;exitDx=0;exitDy=0;exitPerimeter=0;" parent="1" source="0udTxkL1ZwxzqSRE1IcV-15" target="0udTxkL1ZwxzqSRE1IcV-63" edge="1">
          <mxGeometry width="50" height="50" relative="1" as="geometry">
            <mxPoint x="590" y="90" as="sourcePoint" />
            <mxPoint x="640" y="40" as="targetPoint" />
          </mxGeometry>
        </mxCell>
        <mxCell id="0udTxkL1ZwxzqSRE1IcV-66" value="" style="endArrow=none;html=1;rounded=0;entryX=0.679;entryY=0.964;entryDx=0;entryDy=0;entryPerimeter=0;exitX=0.368;exitY=-0.002;exitDx=0;exitDy=0;exitPerimeter=0;" parent="1" source="0udTxkL1ZwxzqSRE1IcV-15" target="0udTxkL1ZwxzqSRE1IcV-61" edge="1">
          <mxGeometry width="50" height="50" relative="1" as="geometry">
            <mxPoint x="540" y="160" as="sourcePoint" />
            <mxPoint x="590" y="110" as="targetPoint" />
          </mxGeometry>
        </mxCell>
        <mxCell id="0udTxkL1ZwxzqSRE1IcV-67" value="" style="endArrow=none;html=1;rounded=0;entryX=1;entryY=0.5;entryDx=0;entryDy=0;exitX=0.372;exitY=0.018;exitDx=0;exitDy=0;exitPerimeter=0;" parent="1" source="0udTxkL1ZwxzqSRE1IcV-15" target="0udTxkL1ZwxzqSRE1IcV-60" edge="1">
          <mxGeometry width="50" height="50" relative="1" as="geometry">
            <mxPoint x="530" y="160" as="sourcePoint" />
            <mxPoint x="580" y="110" as="targetPoint" />
          </mxGeometry>
        </mxCell>
        <mxCell id="0udTxkL1ZwxzqSRE1IcV-68" value="&lt;u&gt;id_kategori_produk&lt;/u&gt;" style="ellipse;whiteSpace=wrap;html=1;" parent="1" vertex="1">
          <mxGeometry x="490" y="-290" width="110" height="40" as="geometry" />
        </mxCell>
        <mxCell id="0udTxkL1ZwxzqSRE1IcV-69" value="nama_kategori_produk" style="ellipse;whiteSpace=wrap;html=1;" parent="1" vertex="1">
          <mxGeometry x="600" y="-290" width="130" height="40" as="geometry" />
        </mxCell>
        <mxCell id="0udTxkL1ZwxzqSRE1IcV-70" value="" style="endArrow=none;html=1;rounded=0;entryX=0.5;entryY=0;entryDx=0;entryDy=0;exitX=0.238;exitY=0.934;exitDx=0;exitDy=0;exitPerimeter=0;" parent="1" source="0udTxkL1ZwxzqSRE1IcV-69" target="0udTxkL1ZwxzqSRE1IcV-16" edge="1">
          <mxGeometry width="50" height="50" relative="1" as="geometry">
            <mxPoint x="670" y="-280" as="sourcePoint" />
            <mxPoint x="720" y="-330" as="targetPoint" />
          </mxGeometry>
        </mxCell>
        <mxCell id="0udTxkL1ZwxzqSRE1IcV-71" value="" style="endArrow=none;html=1;rounded=0;entryX=0.495;entryY=0.004;entryDx=0;entryDy=0;exitX=0.811;exitY=0.887;exitDx=0;exitDy=0;exitPerimeter=0;entryPerimeter=0;" parent="1" source="0udTxkL1ZwxzqSRE1IcV-68" target="0udTxkL1ZwxzqSRE1IcV-16" edge="1">
          <mxGeometry width="50" height="50" relative="1" as="geometry">
            <mxPoint x="581" y="-260" as="sourcePoint" />
            <mxPoint x="550" y="-217" as="targetPoint" />
          </mxGeometry>
        </mxCell>
        <mxCell id="0udTxkL1ZwxzqSRE1IcV-72" value="nama_pelanggan" style="ellipse;whiteSpace=wrap;html=1;" parent="1" vertex="1">
          <mxGeometry x="940" y="360" width="130" height="40" as="geometry" />
        </mxCell>
        <mxCell id="0udTxkL1ZwxzqSRE1IcV-73" value="&lt;u&gt;id_pelanggan&lt;/u&gt;" style="ellipse;whiteSpace=wrap;html=1;" parent="1" vertex="1">
          <mxGeometry x="880" y="400" width="120" height="40" as="geometry" />
        </mxCell>
        <mxCell id="0udTxkL1ZwxzqSRE1IcV-74" value="no_hp_pelanggan" style="ellipse;whiteSpace=wrap;html=1;" parent="1" vertex="1">
          <mxGeometry x="1090" y="360" width="130" height="40" as="geometry" />
        </mxCell>
        <mxCell id="0udTxkL1ZwxzqSRE1IcV-75" value="alamat_pelanggan" style="ellipse;whiteSpace=wrap;html=1;" parent="1" vertex="1">
          <mxGeometry x="1140" y="400" width="130" height="40" as="geometry" />
        </mxCell>
        <mxCell id="0udTxkL1ZwxzqSRE1IcV-76" value="" style="endArrow=none;html=1;rounded=0;entryX=0.801;entryY=0.926;entryDx=0;entryDy=0;entryPerimeter=0;" parent="1" source="0udTxkL1ZwxzqSRE1IcV-20" target="0udTxkL1ZwxzqSRE1IcV-72" edge="1">
          <mxGeometry width="50" height="50" relative="1" as="geometry">
            <mxPoint x="1020" y="470" as="sourcePoint" />
            <mxPoint x="1070" y="420" as="targetPoint" />
          </mxGeometry>
        </mxCell>
        <mxCell id="0udTxkL1ZwxzqSRE1IcV-78" value="" style="endArrow=none;html=1;rounded=0;entryX=0.989;entryY=0.521;entryDx=0;entryDy=0;entryPerimeter=0;exitX=0.364;exitY=0.004;exitDx=0;exitDy=0;exitPerimeter=0;" parent="1" source="0udTxkL1ZwxzqSRE1IcV-20" target="0udTxkL1ZwxzqSRE1IcV-73" edge="1">
          <mxGeometry width="50" height="50" relative="1" as="geometry">
            <mxPoint x="1020" y="470" as="sourcePoint" />
            <mxPoint x="1070" y="420" as="targetPoint" />
          </mxGeometry>
        </mxCell>
        <mxCell id="0udTxkL1ZwxzqSRE1IcV-79" value="" style="endArrow=none;html=1;rounded=0;entryX=0.224;entryY=0.961;entryDx=0;entryDy=0;entryPerimeter=0;exitX=0.667;exitY=0;exitDx=0;exitDy=0;exitPerimeter=0;" parent="1" source="0udTxkL1ZwxzqSRE1IcV-20" target="0udTxkL1ZwxzqSRE1IcV-74" edge="1">
          <mxGeometry width="50" height="50" relative="1" as="geometry">
            <mxPoint x="1090" y="470" as="sourcePoint" />
            <mxPoint x="1140" y="420" as="targetPoint" />
          </mxGeometry>
        </mxCell>
        <mxCell id="0udTxkL1ZwxzqSRE1IcV-80" value="" style="endArrow=none;html=1;rounded=0;exitX=0.666;exitY=-0.003;exitDx=0;exitDy=0;exitPerimeter=0;" parent="1" source="0udTxkL1ZwxzqSRE1IcV-20" edge="1">
          <mxGeometry width="50" height="50" relative="1" as="geometry">
            <mxPoint x="1090" y="470" as="sourcePoint" />
            <mxPoint x="1140" y="420" as="targetPoint" />
          </mxGeometry>
        </mxCell>
        <mxCell id="0udTxkL1ZwxzqSRE1IcV-81" value="Karyawan Workshop" style="rhombus;whiteSpace=wrap;html=1;" parent="1" vertex="1">
          <mxGeometry x="1000" y="-170" width="80" height="80" as="geometry" />
        </mxCell>
        <mxCell id="0udTxkL1ZwxzqSRE1IcV-82" value="" style="endArrow=none;html=1;rounded=0;entryX=0;entryY=0.5;entryDx=0;entryDy=0;" parent="1" source="0udTxkL1ZwxzqSRE1IcV-81" target="0udTxkL1ZwxzqSRE1IcV-35" edge="1">
          <mxGeometry width="50" height="50" relative="1" as="geometry">
            <mxPoint x="1080" y="100" as="sourcePoint" />
            <mxPoint x="1130" y="50" as="targetPoint" />
          </mxGeometry>
        </mxCell>
        <mxCell id="0udTxkL1ZwxzqSRE1IcV-83" value="" style="endArrow=none;html=1;rounded=0;entryX=0;entryY=0.5;entryDx=0;entryDy=0;" parent="1" source="0udTxkL1ZwxzqSRE1IcV-30" target="0udTxkL1ZwxzqSRE1IcV-81" edge="1">
          <mxGeometry width="50" height="50" relative="1" as="geometry">
            <mxPoint x="1080" y="100" as="sourcePoint" />
            <mxPoint x="1130" y="50" as="targetPoint" />
          </mxGeometry>
        </mxCell>
        <mxCell id="0udTxkL1ZwxzqSRE1IcV-85" value="" style="endArrow=none;html=1;rounded=0;entryX=1;entryY=0.5;entryDx=0;entryDy=0;" parent="1" source="0udTxkL1ZwxzqSRE1IcV-38" target="0udTxkL1ZwxzqSRE1IcV-35" edge="1">
          <mxGeometry width="50" height="50" relative="1" as="geometry">
            <mxPoint x="1120" y="-20.310000000000002" as="sourcePoint" />
            <mxPoint x="1200" y="-20.310000000000002" as="targetPoint" />
          </mxGeometry>
        </mxCell>
        <mxCell id="0udTxkL1ZwxzqSRE1IcV-86" value="" style="endArrow=none;html=1;rounded=0;" parent="1" source="0udTxkL1ZwxzqSRE1IcV-37" target="0udTxkL1ZwxzqSRE1IcV-38" edge="1">
          <mxGeometry width="50" height="50" relative="1" as="geometry">
            <mxPoint x="1100" y="-120" as="sourcePoint" />
            <mxPoint x="1180" y="-120" as="targetPoint" />
          </mxGeometry>
        </mxCell>
        <mxCell id="0udTxkL1ZwxzqSRE1IcV-88" value="" style="endArrow=none;html=1;rounded=0;entryX=0.5;entryY=1;entryDx=0;entryDy=0;" parent="1" source="0udTxkL1ZwxzqSRE1IcV-35" target="0udTxkL1ZwxzqSRE1IcV-39" edge="1">
          <mxGeometry width="50" height="50" relative="1" as="geometry">
            <mxPoint x="1230" y="450" as="sourcePoint" />
            <mxPoint x="1190" y="270" as="targetPoint" />
          </mxGeometry>
        </mxCell>
        <mxCell id="0udTxkL1ZwxzqSRE1IcV-89" value="M" style="text;html=1;align=center;verticalAlign=middle;whiteSpace=wrap;rounded=0;" parent="1" vertex="1">
          <mxGeometry x="550" y="-50" width="60" height="30" as="geometry" />
        </mxCell>
        <mxCell id="0udTxkL1ZwxzqSRE1IcV-90" value="1" style="text;html=1;align=center;verticalAlign=middle;whiteSpace=wrap;rounded=0;" parent="1" vertex="1">
          <mxGeometry x="550" y="-135" width="60" height="30" as="geometry" />
        </mxCell>
        <mxCell id="0udTxkL1ZwxzqSRE1IcV-91" value="M" style="text;html=1;align=center;verticalAlign=middle;whiteSpace=wrap;rounded=0;" parent="1" vertex="1">
          <mxGeometry x="800" y="150" width="60" height="30" as="geometry" />
        </mxCell>
        <mxCell id="0udTxkL1ZwxzqSRE1IcV-92" value="M" style="text;html=1;align=center;verticalAlign=middle;whiteSpace=wrap;rounded=0;" parent="1" vertex="1">
          <mxGeometry x="890" y="150" width="60" height="30" as="geometry" />
        </mxCell>
        <mxCell id="0udTxkL1ZwxzqSRE1IcV-93" value="M" style="text;html=1;align=center;verticalAlign=middle;whiteSpace=wrap;rounded=0;" parent="1" vertex="1">
          <mxGeometry x="1020" y="240" width="60" height="30" as="geometry" />
        </mxCell>
        <mxCell id="0udTxkL1ZwxzqSRE1IcV-94" value="1" style="text;html=1;align=center;verticalAlign=middle;whiteSpace=wrap;rounded=0;" parent="1" vertex="1">
          <mxGeometry x="1020" y="300" width="60" height="30" as="geometry" />
        </mxCell>
        <mxCell id="0udTxkL1ZwxzqSRE1IcV-95" value="M" style="text;html=1;align=center;verticalAlign=middle;whiteSpace=wrap;rounded=0;" parent="1" vertex="1">
          <mxGeometry x="1290" y="220" width="60" height="30" as="geometry" />
        </mxCell>
        <mxCell id="0udTxkL1ZwxzqSRE1IcV-96" value="1" style="text;html=1;align=center;verticalAlign=middle;whiteSpace=wrap;rounded=0;" parent="1" vertex="1">
          <mxGeometry x="1290" y="142.5" width="70" height="17.5" as="geometry" />
        </mxCell>
        <mxCell id="0udTxkL1ZwxzqSRE1IcV-97" value="M" style="text;html=1;align=center;verticalAlign=middle;whiteSpace=wrap;rounded=0;" parent="1" vertex="1">
          <mxGeometry x="550" y="240" width="60" height="30" as="geometry" />
        </mxCell>
        <mxCell id="0udTxkL1ZwxzqSRE1IcV-98" value="M" style="text;html=1;align=center;verticalAlign=middle;whiteSpace=wrap;rounded=0;" parent="1" vertex="1">
          <mxGeometry x="550" y="330" width="60" height="30" as="geometry" />
        </mxCell>
        <mxCell id="0udTxkL1ZwxzqSRE1IcV-99" value="M" style="text;html=1;align=center;verticalAlign=middle;whiteSpace=wrap;rounded=0;" parent="1" vertex="1">
          <mxGeometry x="305" y="415" width="60" height="30" as="geometry" />
        </mxCell>
        <mxCell id="0udTxkL1ZwxzqSRE1IcV-101" value="M" style="text;html=1;align=center;verticalAlign=middle;whiteSpace=wrap;rounded=0;" parent="1" vertex="1">
          <mxGeometry x="810" width="60" height="30" as="geometry" />
        </mxCell>
        <mxCell id="0udTxkL1ZwxzqSRE1IcV-102" value="M" style="text;html=1;align=center;verticalAlign=middle;whiteSpace=wrap;rounded=0;" parent="1" vertex="1">
          <mxGeometry x="810" y="-80" width="60" height="30" as="geometry" />
        </mxCell>
        <mxCell id="0udTxkL1ZwxzqSRE1IcV-105" value="M" style="text;html=1;align=center;verticalAlign=middle;whiteSpace=wrap;rounded=0;" parent="1" vertex="1">
          <mxGeometry x="980" y="-180" width="60" height="30" as="geometry" />
        </mxCell>
        <mxCell id="0udTxkL1ZwxzqSRE1IcV-106" value="M" style="text;html=1;align=center;verticalAlign=middle;whiteSpace=wrap;rounded=0;" parent="1" vertex="1">
          <mxGeometry x="1040" y="-180" width="60" height="30" as="geometry" />
        </mxCell>
        <mxCell id="0udTxkL1ZwxzqSRE1IcV-107" value="1" style="text;html=1;align=center;verticalAlign=middle;whiteSpace=wrap;rounded=0;" parent="1" vertex="1">
          <mxGeometry x="1400" y="-160" width="60" height="30" as="geometry" />
        </mxCell>
        <mxCell id="0udTxkL1ZwxzqSRE1IcV-108" value="1" style="text;html=1;align=center;verticalAlign=middle;whiteSpace=wrap;rounded=0;" parent="1" vertex="1">
          <mxGeometry x="1450" y="-190" width="60" height="30" as="geometry" />
        </mxCell>
        <mxCell id="0udTxkL1ZwxzqSRE1IcV-109" value="Keahlian" style="rounded=0;whiteSpace=wrap;html=1;" parent="1" vertex="1">
          <mxGeometry x="1030" y="-390" width="120" height="60" as="geometry" />
        </mxCell>
        <mxCell id="0udTxkL1ZwxzqSRE1IcV-110" value="" style="endArrow=none;html=1;rounded=0;entryX=0;entryY=0.5;entryDx=0;entryDy=0;exitX=0.995;exitY=0.652;exitDx=0;exitDy=0;exitPerimeter=0;" parent="1" source="0udTxkL1ZwxzqSRE1IcV-109" target="0udTxkL1ZwxzqSRE1IcV-39" edge="1">
          <mxGeometry width="50" height="50" relative="1" as="geometry">
            <mxPoint x="1140" y="-130" as="sourcePoint" />
            <mxPoint x="1190" y="-180" as="targetPoint" />
          </mxGeometry>
        </mxCell>
        <mxCell id="0udTxkL1ZwxzqSRE1IcV-111" value="&lt;u&gt;id_pesanan&lt;/u&gt;" style="ellipse;whiteSpace=wrap;html=1;" parent="1" vertex="1">
          <mxGeometry x="945" y="100" width="130" height="40" as="geometry" />
        </mxCell>
        <mxCell id="0udTxkL1ZwxzqSRE1IcV-112" value="tanggal_pemesanan" style="ellipse;whiteSpace=wrap;html=1;" parent="1" vertex="1">
          <mxGeometry x="1080" y="100" width="130" height="40" as="geometry" />
        </mxCell>
        <mxCell id="0udTxkL1ZwxzqSRE1IcV-113" value="" style="endArrow=none;html=1;rounded=0;entryX=0.647;entryY=0.99;entryDx=0;entryDy=0;entryPerimeter=0;exitX=0.467;exitY=0.008;exitDx=0;exitDy=0;exitPerimeter=0;" parent="1" source="0udTxkL1ZwxzqSRE1IcV-18" target="0udTxkL1ZwxzqSRE1IcV-111" edge="1">
          <mxGeometry width="50" height="50" relative="1" as="geometry">
            <mxPoint x="910" y="340" as="sourcePoint" />
            <mxPoint x="960" y="290" as="targetPoint" />
          </mxGeometry>
        </mxCell>
        <mxCell id="0udTxkL1ZwxzqSRE1IcV-114" value="" style="endArrow=none;html=1;rounded=0;entryX=0.25;entryY=0.932;entryDx=0;entryDy=0;entryPerimeter=0;exitX=0.48;exitY=0.015;exitDx=0;exitDy=0;exitPerimeter=0;" parent="1" source="0udTxkL1ZwxzqSRE1IcV-18" target="0udTxkL1ZwxzqSRE1IcV-112" edge="1">
          <mxGeometry width="50" height="50" relative="1" as="geometry">
            <mxPoint x="1111" y="160" as="sourcePoint" />
            <mxPoint x="1080" y="138" as="targetPoint" />
          </mxGeometry>
        </mxCell>
        <mxCell id="0udTxkL1ZwxzqSRE1IcV-115" value="&lt;u&gt;id_showroom&lt;/u&gt;" style="ellipse;whiteSpace=wrap;html=1;" parent="1" vertex="1">
          <mxGeometry x="1365" y="220" width="110" height="40" as="geometry" />
        </mxCell>
        <mxCell id="0udTxkL1ZwxzqSRE1IcV-116" value="lokasi_showroom" style="ellipse;whiteSpace=wrap;html=1;" parent="1" vertex="1">
          <mxGeometry x="1415" y="260" width="110" height="40" as="geometry" />
        </mxCell>
        <mxCell id="0udTxkL1ZwxzqSRE1IcV-117" value="" style="endArrow=none;html=1;rounded=0;entryX=0.742;entryY=-0.004;entryDx=0;entryDy=0;entryPerimeter=0;exitX=0.396;exitY=1.011;exitDx=0;exitDy=0;exitPerimeter=0;" parent="1" source="0udTxkL1ZwxzqSRE1IcV-115" target="0udTxkL1ZwxzqSRE1IcV-22" edge="1">
          <mxGeometry width="50" height="50" relative="1" as="geometry">
            <mxPoint x="1445" y="240" as="sourcePoint" />
            <mxPoint x="1495" y="190" as="targetPoint" />
          </mxGeometry>
        </mxCell>
        <mxCell id="0udTxkL1ZwxzqSRE1IcV-118" value="" style="endArrow=none;html=1;rounded=0;exitX=0.75;exitY=0;exitDx=0;exitDy=0;exitPerimeter=0;entryX=0.064;entryY=0.764;entryDx=0;entryDy=0;entryPerimeter=0;" parent="1" source="0udTxkL1ZwxzqSRE1IcV-22" target="0udTxkL1ZwxzqSRE1IcV-116" edge="1">
          <mxGeometry width="50" height="50" relative="1" as="geometry">
            <mxPoint x="1342.96" y="359.39999999999986" as="sourcePoint" />
            <mxPoint x="1435" y="280" as="targetPoint" />
          </mxGeometry>
        </mxCell>
        <mxCell id="0udTxkL1ZwxzqSRE1IcV-119" value="&lt;u&gt;id_wilayah&lt;/u&gt;" style="ellipse;whiteSpace=wrap;html=1;" parent="1" vertex="1">
          <mxGeometry x="1220" y="-20" width="110" height="40" as="geometry" />
        </mxCell>
        <mxCell id="0udTxkL1ZwxzqSRE1IcV-120" value="nama_wilayah" style="ellipse;whiteSpace=wrap;html=1;" parent="1" vertex="1">
          <mxGeometry x="1350" y="-20" width="110" height="40" as="geometry" />
        </mxCell>
        <mxCell id="0udTxkL1ZwxzqSRE1IcV-121" value="" style="endArrow=none;html=1;rounded=0;entryX=0.5;entryY=0;entryDx=0;entryDy=0;exitX=0;exitY=1;exitDx=0;exitDy=0;" parent="1" source="0udTxkL1ZwxzqSRE1IcV-120" target="0udTxkL1ZwxzqSRE1IcV-24" edge="1">
          <mxGeometry width="50" height="50" relative="1" as="geometry">
            <mxPoint x="1350" y="-10" as="sourcePoint" />
            <mxPoint x="1400" y="-60" as="targetPoint" />
          </mxGeometry>
        </mxCell>
        <mxCell id="0udTxkL1ZwxzqSRE1IcV-122" value="" style="endArrow=none;html=1;rounded=0;exitX=0.467;exitY=0.009;exitDx=0;exitDy=0;exitPerimeter=0;" parent="1" source="0udTxkL1ZwxzqSRE1IcV-24" edge="1">
          <mxGeometry width="50" height="50" relative="1" as="geometry">
            <mxPoint x="1350" y="-10" as="sourcePoint" />
            <mxPoint x="1301.6732268914911" y="17.490640584584526" as="targetPoint" />
          </mxGeometry>
        </mxCell>
        <mxCell id="0udTxkL1ZwxzqSRE1IcV-123" value="&lt;u&gt;id_bahan&lt;/u&gt;" style="ellipse;whiteSpace=wrap;html=1;" parent="1" vertex="1">
          <mxGeometry x="440" y="410" width="100" height="35" as="geometry" />
        </mxCell>
        <mxCell id="0udTxkL1ZwxzqSRE1IcV-124" value="nama_bahan" style="ellipse;whiteSpace=wrap;html=1;" parent="1" vertex="1">
          <mxGeometry x="495" y="375" width="100" height="35" as="geometry" />
        </mxCell>
        <mxCell id="0udTxkL1ZwxzqSRE1IcV-125" value="" style="endArrow=none;html=1;rounded=0;entryX=0.659;entryY=0.98;entryDx=0;entryDy=0;entryPerimeter=0;exitX=0.5;exitY=0;exitDx=0;exitDy=0;" parent="1" source="0udTxkL1ZwxzqSRE1IcV-26" target="0udTxkL1ZwxzqSRE1IcV-124" edge="1">
          <mxGeometry width="50" height="50" relative="1" as="geometry">
            <mxPoint x="600" y="450" as="sourcePoint" />
            <mxPoint x="650" y="400" as="targetPoint" />
          </mxGeometry>
        </mxCell>
        <mxCell id="0udTxkL1ZwxzqSRE1IcV-126" value="" style="endArrow=none;html=1;rounded=0;entryX=1;entryY=0.5;entryDx=0;entryDy=0;" parent="1" target="0udTxkL1ZwxzqSRE1IcV-123" edge="1">
          <mxGeometry width="50" height="50" relative="1" as="geometry">
            <mxPoint x="600" y="454" as="sourcePoint" />
            <mxPoint x="630" y="410" as="targetPoint" />
          </mxGeometry>
        </mxCell>
        <mxCell id="0udTxkL1ZwxzqSRE1IcV-127" value="satuan_ukur" style="ellipse;whiteSpace=wrap;html=1;" parent="1" vertex="1">
          <mxGeometry x="610" y="375" width="100" height="35" as="geometry" />
        </mxCell>
        <mxCell id="0udTxkL1ZwxzqSRE1IcV-128" value="harga_unit" style="ellipse;whiteSpace=wrap;html=1;" parent="1" vertex="1">
          <mxGeometry x="670" y="405" width="100" height="35" as="geometry" />
        </mxCell>
        <mxCell id="0udTxkL1ZwxzqSRE1IcV-130" value="" style="endArrow=none;html=1;rounded=0;exitX=0.5;exitY=0;exitDx=0;exitDy=0;" parent="1" source="0udTxkL1ZwxzqSRE1IcV-26" edge="1">
          <mxGeometry width="50" height="50" relative="1" as="geometry">
            <mxPoint x="595" y="465" as="sourcePoint" />
            <mxPoint x="640" y="410" as="targetPoint" />
          </mxGeometry>
        </mxCell>
        <mxCell id="0udTxkL1ZwxzqSRE1IcV-131" value="" style="endArrow=none;html=1;rounded=0;entryX=-0.003;entryY=0.605;entryDx=0;entryDy=0;entryPerimeter=0;exitX=0.5;exitY=0;exitDx=0;exitDy=0;" parent="1" source="0udTxkL1ZwxzqSRE1IcV-26" target="0udTxkL1ZwxzqSRE1IcV-128" edge="1">
          <mxGeometry width="50" height="50" relative="1" as="geometry">
            <mxPoint x="605" y="475" as="sourcePoint" />
            <mxPoint x="581" y="429" as="targetPoint" />
          </mxGeometry>
        </mxCell>
        <mxCell id="0udTxkL1ZwxzqSRE1IcV-132" value="&lt;u&gt;id_vendor&lt;/u&gt;" style="ellipse;whiteSpace=wrap;html=1;" parent="1" vertex="1">
          <mxGeometry x="160" y="250" width="100" height="35" as="geometry" />
        </mxCell>
        <mxCell id="0udTxkL1ZwxzqSRE1IcV-133" value="nama_vendor" style="ellipse;whiteSpace=wrap;html=1;" parent="1" vertex="1">
          <mxGeometry x="210" y="215" width="100" height="35" as="geometry" />
        </mxCell>
        <mxCell id="0udTxkL1ZwxzqSRE1IcV-134" value="no_telp_vendor" style="ellipse;whiteSpace=wrap;html=1;" parent="1" vertex="1">
          <mxGeometry x="320" y="215" width="100" height="35" as="geometry" />
        </mxCell>
        <mxCell id="0udTxkL1ZwxzqSRE1IcV-135" value="alamat_vendor" style="ellipse;whiteSpace=wrap;html=1;" parent="1" vertex="1">
          <mxGeometry x="365" y="250" width="100" height="35" as="geometry" />
        </mxCell>
        <mxCell id="0udTxkL1ZwxzqSRE1IcV-136" value="" style="endArrow=none;html=1;rounded=0;entryX=0.997;entryY=0.619;entryDx=0;entryDy=0;entryPerimeter=0;exitX=0.5;exitY=0;exitDx=0;exitDy=0;" parent="1" source="0udTxkL1ZwxzqSRE1IcV-28" target="0udTxkL1ZwxzqSRE1IcV-132" edge="1">
          <mxGeometry width="50" height="50" relative="1" as="geometry">
            <mxPoint x="430" y="325" as="sourcePoint" />
            <mxPoint x="480" y="275" as="targetPoint" />
          </mxGeometry>
        </mxCell>
        <mxCell id="0udTxkL1ZwxzqSRE1IcV-137" value="" style="endArrow=none;html=1;rounded=0;entryX=0.778;entryY=0.941;entryDx=0;entryDy=0;entryPerimeter=0;exitX=0.5;exitY=0;exitDx=0;exitDy=0;" parent="1" source="0udTxkL1ZwxzqSRE1IcV-28" target="0udTxkL1ZwxzqSRE1IcV-133" edge="1">
          <mxGeometry width="50" height="50" relative="1" as="geometry">
            <mxPoint x="430" y="325" as="sourcePoint" />
            <mxPoint x="480" y="275" as="targetPoint" />
          </mxGeometry>
        </mxCell>
        <mxCell id="0udTxkL1ZwxzqSRE1IcV-138" value="" style="endArrow=none;html=1;rounded=0;entryX=0.216;entryY=0.913;entryDx=0;entryDy=0;entryPerimeter=0;exitX=0.5;exitY=0;exitDx=0;exitDy=0;" parent="1" source="0udTxkL1ZwxzqSRE1IcV-28" target="0udTxkL1ZwxzqSRE1IcV-134" edge="1">
          <mxGeometry width="50" height="50" relative="1" as="geometry">
            <mxPoint x="430" y="325" as="sourcePoint" />
            <mxPoint x="480" y="275" as="targetPoint" />
          </mxGeometry>
        </mxCell>
        <mxCell id="0udTxkL1ZwxzqSRE1IcV-139" value="" style="endArrow=none;html=1;rounded=0;exitX=0.5;exitY=0;exitDx=0;exitDy=0;" parent="1" source="0udTxkL1ZwxzqSRE1IcV-28" edge="1">
          <mxGeometry width="50" height="50" relative="1" as="geometry">
            <mxPoint x="320" y="325" as="sourcePoint" />
            <mxPoint x="370" y="275" as="targetPoint" />
          </mxGeometry>
        </mxCell>
        <mxCell id="0udTxkL1ZwxzqSRE1IcV-140" value="&lt;u&gt;id_workshop&lt;/u&gt;" style="ellipse;whiteSpace=wrap;html=1;" parent="1" vertex="1">
          <mxGeometry x="740" y="-210" width="110" height="40" as="geometry" />
        </mxCell>
        <mxCell id="0udTxkL1ZwxzqSRE1IcV-141" value="lokasi_workshop" style="ellipse;whiteSpace=wrap;html=1;" parent="1" vertex="1">
          <mxGeometry x="815" y="-240" width="110" height="40" as="geometry" />
        </mxCell>
        <mxCell id="0udTxkL1ZwxzqSRE1IcV-142" value="no_hp_workshop" style="ellipse;whiteSpace=wrap;html=1;" parent="1" vertex="1">
          <mxGeometry x="890" y="-210" width="110" height="40" as="geometry" />
        </mxCell>
        <mxCell id="0udTxkL1ZwxzqSRE1IcV-144" value="" style="endArrow=none;html=1;rounded=0;entryX=0.5;entryY=1;entryDx=0;entryDy=0;" parent="1" source="0udTxkL1ZwxzqSRE1IcV-30" target="0udTxkL1ZwxzqSRE1IcV-141" edge="1">
          <mxGeometry width="50" height="50" relative="1" as="geometry">
            <mxPoint x="880" y="-130" as="sourcePoint" />
            <mxPoint x="930" y="-180" as="targetPoint" />
          </mxGeometry>
        </mxCell>
        <mxCell id="0udTxkL1ZwxzqSRE1IcV-145" value="" style="endArrow=none;html=1;rounded=0;entryX=0.004;entryY=0.571;entryDx=0;entryDy=0;entryPerimeter=0;exitX=0.5;exitY=0;exitDx=0;exitDy=0;" parent="1" target="0udTxkL1ZwxzqSRE1IcV-142" edge="1">
          <mxGeometry width="50" height="50" relative="1" as="geometry">
            <mxPoint x="871.0999999999999" y="-160.32" as="sourcePoint" />
            <mxPoint x="890" y="-185.99999999999994" as="targetPoint" />
          </mxGeometry>
        </mxCell>
        <mxCell id="0udTxkL1ZwxzqSRE1IcV-146" value="" style="endArrow=none;html=1;rounded=0;entryX=0.988;entryY=0.617;entryDx=0;entryDy=0;entryPerimeter=0;exitX=0.481;exitY=0.001;exitDx=0;exitDy=0;exitPerimeter=0;" parent="1" source="0udTxkL1ZwxzqSRE1IcV-30" target="0udTxkL1ZwxzqSRE1IcV-140" edge="1">
          <mxGeometry width="50" height="50" relative="1" as="geometry">
            <mxPoint x="880" y="-130" as="sourcePoint" />
            <mxPoint x="930" y="-180" as="targetPoint" />
          </mxGeometry>
        </mxCell>
        <mxCell id="0udTxkL1ZwxzqSRE1IcV-149" value="&lt;u&gt;id_sales&lt;/u&gt;" style="ellipse;whiteSpace=wrap;html=1;" parent="1" vertex="1">
          <mxGeometry x="1545" y="-10" width="110" height="40" as="geometry" />
        </mxCell>
        <mxCell id="0udTxkL1ZwxzqSRE1IcV-150" value="nama_sales" style="ellipse;whiteSpace=wrap;html=1;" parent="1" vertex="1">
          <mxGeometry x="1605" y="-50" width="110" height="40" as="geometry" />
        </mxCell>
        <mxCell id="0udTxkL1ZwxzqSRE1IcV-151" value="no_hp_sales" style="ellipse;whiteSpace=wrap;html=1;" parent="1" vertex="1">
          <mxGeometry x="1715" y="-50" width="110" height="40" as="geometry" />
        </mxCell>
        <mxCell id="0udTxkL1ZwxzqSRE1IcV-152" value="fax_sales" style="ellipse;whiteSpace=wrap;html=1;" parent="1" vertex="1">
          <mxGeometry x="1775" y="-8.75" width="110" height="40" as="geometry" />
        </mxCell>
        <mxCell id="0udTxkL1ZwxzqSRE1IcV-153" value="" style="endArrow=none;html=1;rounded=0;entryX=1;entryY=0.5;entryDx=0;entryDy=0;exitX=0.5;exitY=0;exitDx=0;exitDy=0;" parent="1" source="0udTxkL1ZwxzqSRE1IcV-34" target="0udTxkL1ZwxzqSRE1IcV-149" edge="1">
          <mxGeometry width="50" height="50" relative="1" as="geometry">
            <mxPoint x="1825" y="90" as="sourcePoint" />
            <mxPoint x="1875" y="40" as="targetPoint" />
          </mxGeometry>
        </mxCell>
        <mxCell id="0udTxkL1ZwxzqSRE1IcV-154" value="" style="endArrow=none;html=1;rounded=0;entryX=1;entryY=1;entryDx=0;entryDy=0;exitX=0.5;exitY=0;exitDx=0;exitDy=0;" parent="1" source="0udTxkL1ZwxzqSRE1IcV-34" target="0udTxkL1ZwxzqSRE1IcV-150" edge="1">
          <mxGeometry width="50" height="50" relative="1" as="geometry">
            <mxPoint x="1825" y="90" as="sourcePoint" />
            <mxPoint x="1875" y="40" as="targetPoint" />
          </mxGeometry>
        </mxCell>
        <mxCell id="0udTxkL1ZwxzqSRE1IcV-155" value="" style="endArrow=none;html=1;rounded=0;entryX=0.362;entryY=1.018;entryDx=0;entryDy=0;entryPerimeter=0;exitX=0.5;exitY=0;exitDx=0;exitDy=0;" parent="1" source="0udTxkL1ZwxzqSRE1IcV-34" target="0udTxkL1ZwxzqSRE1IcV-151" edge="1">
          <mxGeometry width="50" height="50" relative="1" as="geometry">
            <mxPoint x="1825" y="90" as="sourcePoint" />
            <mxPoint x="1875" y="40" as="targetPoint" />
          </mxGeometry>
        </mxCell>
        <mxCell id="0udTxkL1ZwxzqSRE1IcV-156" value="" style="endArrow=none;html=1;rounded=0;entryX=0.006;entryY=0.652;entryDx=0;entryDy=0;entryPerimeter=0;exitX=0.5;exitY=0;exitDx=0;exitDy=0;" parent="1" source="0udTxkL1ZwxzqSRE1IcV-34" edge="1">
          <mxGeometry width="50" height="50" relative="1" as="geometry">
            <mxPoint x="1825" y="90" as="sourcePoint" />
            <mxPoint x="1775.6600000000008" y="16.079999999999927" as="targetPoint" />
          </mxGeometry>
        </mxCell>
        <mxCell id="0udTxkL1ZwxzqSRE1IcV-157" value="&lt;u&gt;id_karyawan&lt;/u&gt;" style="ellipse;whiteSpace=wrap;html=1;" parent="1" vertex="1">
          <mxGeometry x="1080" y="-210" width="110" height="40" as="geometry" />
        </mxCell>
        <mxCell id="0udTxkL1ZwxzqSRE1IcV-158" value="no_hp_karyawan" style="ellipse;whiteSpace=wrap;html=1;" parent="1" vertex="1">
          <mxGeometry x="1240" y="-250" width="110" height="40" as="geometry" />
        </mxCell>
        <mxCell id="0udTxkL1ZwxzqSRE1IcV-159" value="alamat_karyawan" style="ellipse;whiteSpace=wrap;html=1;" parent="1" vertex="1">
          <mxGeometry x="1280" y="-210" width="110" height="40" as="geometry" />
        </mxCell>
        <mxCell id="0udTxkL1ZwxzqSRE1IcV-160" value="nama_karyawan" style="ellipse;whiteSpace=wrap;html=1;" parent="1" vertex="1">
          <mxGeometry x="1120" y="-250" width="110" height="40" as="geometry" />
        </mxCell>
        <mxCell id="0udTxkL1ZwxzqSRE1IcV-161" value="" style="endArrow=none;html=1;rounded=0;entryX=1;entryY=0.5;entryDx=0;entryDy=0;" parent="1" target="0udTxkL1ZwxzqSRE1IcV-157" edge="1">
          <mxGeometry width="50" height="50" relative="1" as="geometry">
            <mxPoint x="1230" y="-160" as="sourcePoint" />
            <mxPoint x="1280" y="-150" as="targetPoint" />
          </mxGeometry>
        </mxCell>
        <mxCell id="0udTxkL1ZwxzqSRE1IcV-162" value="" style="endArrow=none;html=1;rounded=0;entryX=0.809;entryY=0.893;entryDx=0;entryDy=0;entryPerimeter=0;exitX=0.5;exitY=0;exitDx=0;exitDy=0;" parent="1" source="0udTxkL1ZwxzqSRE1IcV-35" target="0udTxkL1ZwxzqSRE1IcV-160" edge="1">
          <mxGeometry width="50" height="50" relative="1" as="geometry">
            <mxPoint x="1230" y="-100" as="sourcePoint" />
            <mxPoint x="1280" y="-150" as="targetPoint" />
          </mxGeometry>
        </mxCell>
        <mxCell id="0udTxkL1ZwxzqSRE1IcV-163" value="" style="endArrow=none;html=1;rounded=0;entryX=0.211;entryY=0.893;entryDx=0;entryDy=0;entryPerimeter=0;exitX=0.5;exitY=0;exitDx=0;exitDy=0;" parent="1" source="0udTxkL1ZwxzqSRE1IcV-35" target="0udTxkL1ZwxzqSRE1IcV-158" edge="1">
          <mxGeometry width="50" height="50" relative="1" as="geometry">
            <mxPoint x="1230" y="-100" as="sourcePoint" />
            <mxPoint x="1280" y="-150" as="targetPoint" />
          </mxGeometry>
        </mxCell>
        <mxCell id="0udTxkL1ZwxzqSRE1IcV-164" value="" style="endArrow=none;html=1;rounded=0;entryX=0;entryY=0.5;entryDx=0;entryDy=0;exitX=0.5;exitY=0;exitDx=0;exitDy=0;" parent="1" source="0udTxkL1ZwxzqSRE1IcV-35" target="0udTxkL1ZwxzqSRE1IcV-159" edge="1">
          <mxGeometry width="50" height="50" relative="1" as="geometry">
            <mxPoint x="1230" y="-100" as="sourcePoint" />
            <mxPoint x="1280" y="-150" as="targetPoint" />
          </mxGeometry>
        </mxCell>
        <mxCell id="0udTxkL1ZwxzqSRE1IcV-165" value="&lt;u&gt;id_keahlian&lt;/u&gt;" style="ellipse;whiteSpace=wrap;html=1;" parent="1" vertex="1">
          <mxGeometry x="980" y="-450" width="110" height="40" as="geometry" />
        </mxCell>
        <mxCell id="0udTxkL1ZwxzqSRE1IcV-166" value="nama_keahlian" style="ellipse;whiteSpace=wrap;html=1;" parent="1" vertex="1">
          <mxGeometry x="1100" y="-450" width="110" height="40" as="geometry" />
        </mxCell>
        <mxCell id="0udTxkL1ZwxzqSRE1IcV-167" value="" style="endArrow=none;html=1;rounded=0;entryX=0.707;entryY=0.965;entryDx=0;entryDy=0;entryPerimeter=0;exitX=0.5;exitY=0;exitDx=0;exitDy=0;" parent="1" source="0udTxkL1ZwxzqSRE1IcV-109" target="0udTxkL1ZwxzqSRE1IcV-165" edge="1">
          <mxGeometry width="50" height="50" relative="1" as="geometry">
            <mxPoint x="1230" y="-230" as="sourcePoint" />
            <mxPoint x="1280" y="-280" as="targetPoint" />
          </mxGeometry>
        </mxCell>
        <mxCell id="0udTxkL1ZwxzqSRE1IcV-168" value="" style="endArrow=none;html=1;rounded=0;entryX=0.209;entryY=0.903;entryDx=0;entryDy=0;entryPerimeter=0;exitX=0.5;exitY=0;exitDx=0;exitDy=0;" parent="1" source="0udTxkL1ZwxzqSRE1IcV-109" target="0udTxkL1ZwxzqSRE1IcV-166" edge="1">
          <mxGeometry width="50" height="50" relative="1" as="geometry">
            <mxPoint x="1230" y="-230" as="sourcePoint" />
            <mxPoint x="1280" y="-280" as="targetPoint" />
          </mxGeometry>
        </mxCell>
        <mxCell id="0udTxkL1ZwxzqSRE1IcV-169" value="&lt;u&gt;id_jabatan&lt;/u&gt;" style="ellipse;whiteSpace=wrap;html=1;" parent="1" vertex="1">
          <mxGeometry x="1370" y="-390" width="110" height="40" as="geometry" />
        </mxCell>
        <mxCell id="0udTxkL1ZwxzqSRE1IcV-170" value="jabatan" style="ellipse;whiteSpace=wrap;html=1;" parent="1" vertex="1">
          <mxGeometry x="1490" y="-390" width="110" height="40" as="geometry" />
        </mxCell>
        <mxCell id="0udTxkL1ZwxzqSRE1IcV-171" value="" style="endArrow=none;html=1;rounded=0;entryX=0.717;entryY=0.973;entryDx=0;entryDy=0;entryPerimeter=0;exitX=0.5;exitY=0;exitDx=0;exitDy=0;" parent="1" source="0udTxkL1ZwxzqSRE1IcV-37" target="0udTxkL1ZwxzqSRE1IcV-169" edge="1">
          <mxGeometry width="50" height="50" relative="1" as="geometry">
            <mxPoint x="1540" y="-315" as="sourcePoint" />
            <mxPoint x="1590" y="-365" as="targetPoint" />
          </mxGeometry>
        </mxCell>
        <mxCell id="0udTxkL1ZwxzqSRE1IcV-172" value="" style="endArrow=none;html=1;rounded=0;entryX=0.307;entryY=0.967;entryDx=0;entryDy=0;entryPerimeter=0;exitX=0.5;exitY=0;exitDx=0;exitDy=0;" parent="1" source="0udTxkL1ZwxzqSRE1IcV-37" target="0udTxkL1ZwxzqSRE1IcV-170" edge="1">
          <mxGeometry width="50" height="50" relative="1" as="geometry">
            <mxPoint x="1500" y="-315" as="sourcePoint" />
            <mxPoint x="1459" y="-341" as="targetPoint" />
          </mxGeometry>
        </mxCell>
        <mxCell id="0udTxkL1ZwxzqSRE1IcV-173" value="M" style="text;html=1;align=center;verticalAlign=middle;whiteSpace=wrap;rounded=0;" parent="1" vertex="1">
          <mxGeometry x="1170" y="-400" width="60" height="30" as="geometry" />
        </mxCell>
        <mxCell id="0udTxkL1ZwxzqSRE1IcV-174" value="M" style="text;html=1;align=center;verticalAlign=middle;whiteSpace=wrap;rounded=0;" parent="1" vertex="1">
          <mxGeometry x="1220" y="-320" width="60" height="30" as="geometry" />
        </mxCell>
        <mxCell id="0udTxkL1ZwxzqSRE1IcV-177" value="Transaksi" style="rhombus;whiteSpace=wrap;html=1;" parent="1" vertex="1">
          <mxGeometry x="1300" y="430" width="80" height="80" as="geometry" />
        </mxCell>
        <mxCell id="0udTxkL1ZwxzqSRE1IcV-178" value="" style="endArrow=none;html=1;rounded=0;entryX=0;entryY=0.5;entryDx=0;entryDy=0;exitX=1;exitY=0.5;exitDx=0;exitDy=0;" parent="1" source="0udTxkL1ZwxzqSRE1IcV-20" target="0udTxkL1ZwxzqSRE1IcV-177" edge="1">
          <mxGeometry width="50" height="50" relative="1" as="geometry">
            <mxPoint x="1480" y="350" as="sourcePoint" />
            <mxPoint x="1640" y="349.9999999999998" as="targetPoint" />
          </mxGeometry>
        </mxCell>
        <mxCell id="0udTxkL1ZwxzqSRE1IcV-179" value="" style="endArrow=none;html=1;rounded=0;entryX=0.5;entryY=0;entryDx=0;entryDy=0;exitX=0.5;exitY=1;exitDx=0;exitDy=0;" parent="1" source="0udTxkL1ZwxzqSRE1IcV-22" target="0udTxkL1ZwxzqSRE1IcV-177" edge="1">
          <mxGeometry width="50" height="50" relative="1" as="geometry">
            <mxPoint x="1410" y="355" as="sourcePoint" />
            <mxPoint x="1585" y="349.9999999999998" as="targetPoint" />
          </mxGeometry>
        </mxCell>
        <mxCell id="0udTxkL1ZwxzqSRE1IcV-181" value="melayani" style="rhombus;whiteSpace=wrap;html=1;" parent="1" vertex="1">
          <mxGeometry x="1480" y="31.25" width="80" height="80" as="geometry" />
        </mxCell>
        <mxCell id="0udTxkL1ZwxzqSRE1IcV-182" value="" style="endArrow=none;html=1;rounded=0;entryX=1;entryY=0.5;entryDx=0;entryDy=0;exitX=0;exitY=0.5;exitDx=0;exitDy=0;" parent="1" source="0udTxkL1ZwxzqSRE1IcV-181" target="0udTxkL1ZwxzqSRE1IcV-24" edge="1">
          <mxGeometry width="50" height="50" relative="1" as="geometry">
            <mxPoint x="1350" y="160" as="sourcePoint" />
            <mxPoint x="1350" y="110" as="targetPoint" />
          </mxGeometry>
        </mxCell>
        <mxCell id="0udTxkL1ZwxzqSRE1IcV-183" value="" style="endArrow=none;html=1;rounded=0;exitX=0;exitY=0.5;exitDx=0;exitDy=0;" parent="1" source="0udTxkL1ZwxzqSRE1IcV-34" edge="1">
          <mxGeometry width="50" height="50" relative="1" as="geometry">
            <mxPoint x="1455" y="81" as="sourcePoint" />
            <mxPoint x="1560" y="71" as="targetPoint" />
          </mxGeometry>
        </mxCell>
        <mxCell id="0udTxkL1ZwxzqSRE1IcV-184" value="" style="endArrow=none;html=1;rounded=0;entryX=0.5;entryY=1;entryDx=0;entryDy=0;exitX=0.5;exitY=0;exitDx=0;exitDy=0;" parent="1" source="0udTxkL1ZwxzqSRE1IcV-29" target="0udTxkL1ZwxzqSRE1IcV-28" edge="1">
          <mxGeometry width="50" height="50" relative="1" as="geometry">
            <mxPoint x="1060" y="320" as="sourcePoint" />
            <mxPoint x="1110" y="270" as="targetPoint" />
          </mxGeometry>
        </mxCell>
        <mxCell id="0udTxkL1ZwxzqSRE1IcV-185" value="M" style="text;html=1;align=center;verticalAlign=middle;whiteSpace=wrap;rounded=0;" parent="1" vertex="1">
          <mxGeometry x="350" y="460" width="60" height="30" as="geometry" />
        </mxCell>
        <mxCell id="0udTxkL1ZwxzqSRE1IcV-187" value="1" style="text;html=1;align=center;verticalAlign=middle;whiteSpace=wrap;rounded=0;" parent="1" vertex="1">
          <mxGeometry x="1435" y="40" width="70" height="17.5" as="geometry" />
        </mxCell>
        <mxCell id="0udTxkL1ZwxzqSRE1IcV-188" value="M" style="text;html=1;align=center;verticalAlign=middle;whiteSpace=wrap;rounded=0;" parent="1" vertex="1">
          <mxGeometry x="1530" y="33.75" width="60" height="30" as="geometry" />
        </mxCell>
        <mxCell id="0udTxkL1ZwxzqSRE1IcV-189" value="M" style="text;html=1;align=center;verticalAlign=middle;whiteSpace=wrap;rounded=0;" parent="1" vertex="1">
          <mxGeometry x="1330" y="412.5" width="60" height="30" as="geometry" />
        </mxCell>
        <mxCell id="0udTxkL1ZwxzqSRE1IcV-190" value="M" style="text;html=1;align=center;verticalAlign=middle;whiteSpace=wrap;rounded=0;" parent="1" vertex="1">
          <mxGeometry x="1265" y="480" width="60" height="30" as="geometry" />
        </mxCell>
        <mxCell id="0udTxkL1ZwxzqSRE1IcV-191" value="by_erpiana" style="text;html=1;align=center;verticalAlign=middle;whiteSpace=wrap;rounded=0;" parent="1" vertex="1">
          <mxGeometry x="1020" y="-15.619999999999997" width="70" height="31.25" as="geometry" />
        </mxCell>
        <mxCell id="hIKdTDZiF8gfHrPuh1JG-1" value="Menerima" style="rhombus;whiteSpace=wrap;html=1;" parent="1" vertex="1">
          <mxGeometry x="1685" y="135" width="80" height="80" as="geometry" />
        </mxCell>
        <mxCell id="hIKdTDZiF8gfHrPuh1JG-2" value="Gaji" style="rounded=0;whiteSpace=wrap;html=1;" parent="1" vertex="1">
          <mxGeometry x="1665" y="300" width="120" height="60" as="geometry" />
        </mxCell>
        <mxCell id="hIKdTDZiF8gfHrPuh1JG-3" value="" style="endArrow=none;html=1;rounded=0;exitX=0.49;exitY=1.011;exitDx=0;exitDy=0;exitPerimeter=0;entryX=0.499;entryY=0.016;entryDx=0;entryDy=0;entryPerimeter=0;" parent="1" target="hIKdTDZiF8gfHrPuh1JG-1" edge="1">
          <mxGeometry width="50" height="50" relative="1" as="geometry">
            <mxPoint x="1723.9199999999998" y="100.00000000000009" as="sourcePoint" />
            <mxPoint x="1726.0799999999997" y="160.61999999999998" as="targetPoint" />
          </mxGeometry>
        </mxCell>
        <mxCell id="hIKdTDZiF8gfHrPuh1JG-5" value="" style="endArrow=none;html=1;rounded=0;exitX=0.5;exitY=1;exitDx=0;exitDy=0;entryX=0.499;entryY=0.024;entryDx=0;entryDy=0;entryPerimeter=0;" parent="1" source="hIKdTDZiF8gfHrPuh1JG-1" target="hIKdTDZiF8gfHrPuh1JG-2" edge="1">
          <mxGeometry width="50" height="50" relative="1" as="geometry">
            <mxPoint x="1733.9199999999998" y="110.00000000000009" as="sourcePoint" />
            <mxPoint x="1735" y="146" as="targetPoint" />
          </mxGeometry>
        </mxCell>
        <mxCell id="hIKdTDZiF8gfHrPuh1JG-6" value="id_gaji" style="ellipse;whiteSpace=wrap;html=1;" parent="1" vertex="1">
          <mxGeometry x="1740" y="212.5" width="110" height="40" as="geometry" />
        </mxCell>
        <mxCell id="hIKdTDZiF8gfHrPuh1JG-7" value="bonus" style="ellipse;whiteSpace=wrap;html=1;" parent="1" vertex="1">
          <mxGeometry x="1810" y="252.5" width="110" height="40" as="geometry" />
        </mxCell>
        <mxCell id="hIKdTDZiF8gfHrPuh1JG-8" value="jumlah_gaji" style="ellipse;whiteSpace=wrap;html=1;" parent="1" vertex="1">
          <mxGeometry x="1590" y="220" width="110" height="40" as="geometry" />
        </mxCell>
        <mxCell id="hIKdTDZiF8gfHrPuh1JG-9" value="" style="endArrow=none;html=1;rounded=0;entryX=0.5;entryY=0;entryDx=0;entryDy=0;" parent="1" source="hIKdTDZiF8gfHrPuh1JG-8" target="hIKdTDZiF8gfHrPuh1JG-2" edge="1">
          <mxGeometry width="50" height="50" relative="1" as="geometry">
            <mxPoint x="1735" y="225" as="sourcePoint" />
            <mxPoint x="1735" y="311" as="targetPoint" />
          </mxGeometry>
        </mxCell>
        <mxCell id="hIKdTDZiF8gfHrPuh1JG-10" value="" style="endArrow=none;html=1;rounded=0;entryX=0.5;entryY=0;entryDx=0;entryDy=0;exitX=0.186;exitY=0.899;exitDx=0;exitDy=0;exitPerimeter=0;" parent="1" source="hIKdTDZiF8gfHrPuh1JG-6" target="hIKdTDZiF8gfHrPuh1JG-2" edge="1">
          <mxGeometry width="50" height="50" relative="1" as="geometry">
            <mxPoint x="1719" y="250" as="sourcePoint" />
            <mxPoint x="1775" y="292" as="targetPoint" />
          </mxGeometry>
        </mxCell>
        <mxCell id="hIKdTDZiF8gfHrPuh1JG-12" value="" style="endArrow=none;html=1;rounded=0;entryX=0.504;entryY=-0.011;entryDx=0;entryDy=0;exitX=0.017;exitY=0.431;exitDx=0;exitDy=0;exitPerimeter=0;entryPerimeter=0;" parent="1" source="hIKdTDZiF8gfHrPuh1JG-7" target="hIKdTDZiF8gfHrPuh1JG-2" edge="1">
          <mxGeometry width="50" height="50" relative="1" as="geometry">
            <mxPoint x="1770" y="260" as="sourcePoint" />
            <mxPoint x="1735" y="310" as="targetPoint" />
          </mxGeometry>
        </mxCell>
        <mxCell id="hIKdTDZiF8gfHrPuh1JG-13" value="Terbagi Dalam" style="rhombus;whiteSpace=wrap;html=1;" parent="1" vertex="1">
          <mxGeometry x="1930" y="290" width="80" height="80" as="geometry" />
        </mxCell>
        <mxCell id="hIKdTDZiF8gfHrPuh1JG-14" value="" style="endArrow=none;html=1;rounded=0;entryX=0.987;entryY=0.531;entryDx=0;entryDy=0;exitX=0;exitY=0.5;exitDx=0;exitDy=0;entryPerimeter=0;" parent="1" source="hIKdTDZiF8gfHrPuh1JG-13" target="hIKdTDZiF8gfHrPuh1JG-2" edge="1">
          <mxGeometry width="50" height="50" relative="1" as="geometry">
            <mxPoint x="1897" y="315.5" as="sourcePoint" />
            <mxPoint x="1810" y="344.5" as="targetPoint" />
          </mxGeometry>
        </mxCell>
        <mxCell id="hIKdTDZiF8gfHrPuh1JG-15" value="Kategori Gaji" style="rounded=0;whiteSpace=wrap;html=1;" parent="1" vertex="1">
          <mxGeometry x="1910" y="140" width="120" height="60" as="geometry" />
        </mxCell>
        <mxCell id="hIKdTDZiF8gfHrPuh1JG-16" value="" style="endArrow=none;html=1;rounded=0;entryX=0.487;entryY=1.004;entryDx=0;entryDy=0;entryPerimeter=0;" parent="1" source="hIKdTDZiF8gfHrPuh1JG-13" target="hIKdTDZiF8gfHrPuh1JG-15" edge="1">
          <mxGeometry width="50" height="50" relative="1" as="geometry">
            <mxPoint x="2077" y="250" as="sourcePoint" />
            <mxPoint x="1930" y="252" as="targetPoint" />
          </mxGeometry>
        </mxCell>
        <mxCell id="hIKdTDZiF8gfHrPuh1JG-17" value="kategori_sales" style="ellipse;whiteSpace=wrap;html=1;" parent="1" vertex="1">
          <mxGeometry x="1960" y="70" width="110" height="40" as="geometry" />
        </mxCell>
        <mxCell id="hIKdTDZiF8gfHrPuh1JG-18" value="id_kategori_gaji" style="ellipse;whiteSpace=wrap;html=1;" parent="1" vertex="1">
          <mxGeometry x="1850" y="70" width="110" height="40" as="geometry" />
        </mxCell>
        <mxCell id="hIKdTDZiF8gfHrPuh1JG-19" value="" style="endArrow=none;html=1;rounded=0;entryX=0.488;entryY=-0.032;entryDx=0;entryDy=0;exitX=0.288;exitY=0.952;exitDx=0;exitDy=0;entryPerimeter=0;exitPerimeter=0;" parent="1" source="hIKdTDZiF8gfHrPuh1JG-17" target="hIKdTDZiF8gfHrPuh1JG-15" edge="1">
          <mxGeometry width="50" height="50" relative="1" as="geometry">
            <mxPoint x="1938.5" y="158" as="sourcePoint" />
            <mxPoint x="1791.5" y="160" as="targetPoint" />
          </mxGeometry>
        </mxCell>
        <mxCell id="hIKdTDZiF8gfHrPuh1JG-20" value="" style="endArrow=none;html=1;rounded=0;entryX=0.479;entryY=-0.03;entryDx=0;entryDy=0;exitX=0.743;exitY=0.996;exitDx=0;exitDy=0;entryPerimeter=0;exitPerimeter=0;" parent="1" source="hIKdTDZiF8gfHrPuh1JG-18" target="hIKdTDZiF8gfHrPuh1JG-15" edge="1">
          <mxGeometry width="50" height="50" relative="1" as="geometry">
            <mxPoint x="2002" y="118" as="sourcePoint" />
            <mxPoint x="1979" y="148" as="targetPoint" />
          </mxGeometry>
        </mxCell>
        <mxCell id="hIKdTDZiF8gfHrPuh1JG-23" value="M" style="text;html=1;align=center;verticalAlign=middle;whiteSpace=wrap;rounded=0;" parent="1" vertex="1">
          <mxGeometry x="1655" y="182.5" width="60" height="30" as="geometry" />
        </mxCell>
        <mxCell id="hIKdTDZiF8gfHrPuh1JG-24" value="1" style="text;html=1;align=center;verticalAlign=middle;whiteSpace=wrap;rounded=0;" parent="1" vertex="1">
          <mxGeometry x="1665" y="130" width="60" height="30" as="geometry" />
        </mxCell>
        <mxCell id="hIKdTDZiF8gfHrPuh1JG-25" value="1" style="text;html=1;align=center;verticalAlign=middle;whiteSpace=wrap;rounded=0;" parent="1" vertex="1">
          <mxGeometry x="1960" y="270" width="60" height="30" as="geometry" />
        </mxCell>
        <mxCell id="hIKdTDZiF8gfHrPuh1JG-26" value="M" style="text;html=1;align=center;verticalAlign=middle;whiteSpace=wrap;rounded=0;" parent="1" vertex="1">
          <mxGeometry x="1885" y="300" width="60" height="30" as="geometry" />
        </mxCell>
      </root>
    </mxGraphModel>
  </diagram>
</mxfile>
